<svg xmlns="http://www.w3.org/2000/svg" viewBox="0 0 1040 660" width="1040" height="660" font-family="-apple-system, BlinkMacSystemFont, 'Segoe UI', Helvetica, Arial, sans-serif">
<rect width="1040" height="660" fill="#ffffff"/>
<text x="86" y="36" font-size="20" font-weight="700" fill="#1f2328">From base model to submission</text>
<text x="86" y="59" font-size="13" fill="#57606a">Eight models, each scored on the same 24-prompt harness at 8 samples per prompt. Left to right is the order they were trained.</text>
<rect x="107.0" y="84.0" width="106.8" height="402.0" rx="8" fill="#eaeef2"/>
<text x="160.4" y="106.0" font-size="13.5" font-weight="700" fill="#1f2328" text-anchor="middle">Base model</text>
<text x="160.4" y="126.0" font-size="11.5" fill="#57606a" text-anchor="middle">unmodified</text>
<text x="160.4" y="145.0" font-size="11" fill="#57606a" text-anchor="middle" font-style="italic">no training</text>
<rect x="219.8" y="84.0" width="445.0" height="402.0" rx="8" fill="#f3eefc"/>
<text x="442.2" y="106.0" font-size="13.5" font-weight="700" fill="#1f2328" text-anchor="middle">Verified corpus only</text>
<text x="442.2" y="126.0" font-size="11.5" fill="#57606a" text-anchor="middle">+ 6,703 verified rows</text>
<text x="442.2" y="145.0" font-size="11" fill="#57606a" text-anchor="middle" font-style="italic">NVIDIA H100 PCIe 80 GB</text>
<rect x="670.8" y="84.0" width="332.2" height="402.0" rx="8" fill="#eaf2fb"/>
<text x="836.9" y="106.0" font-size="13.5" font-weight="700" fill="#1f2328" text-anchor="middle">Two-stage</text>
<text x="836.9" y="126.0" font-size="11.5" fill="#57606a" text-anchor="middle">+ 74,697 filtered rows, then + 6,703 verified</text>
<text x="836.9" y="145.0" font-size="11" fill="#57606a" text-anchor="middle" font-style="italic">NVIDIA RTX A6000 48 GB</text>
<text transform="translate(28,302) rotate(-90)" font-size="12" font-weight="600" fill="#57606a" text-anchor="middle">Score on the 24-prompt harness</text>
<line x1="104" y1="428.0" x2="1006" y2="428.0" stroke="#d8dee4" stroke-width="1.6"/>
<text x="92" y="432.0" font-size="11" fill="#57606a" text-anchor="end">0%</text>
<line x1="104" y1="365.0" x2="1006" y2="365.0" stroke="#d8dee4" stroke-width="1"/>
<text x="92" y="369.0" font-size="11" fill="#57606a" text-anchor="end">25%</text>
<line x1="104" y1="302.0" x2="1006" y2="302.0" stroke="#d8dee4" stroke-width="1"/>
<text x="92" y="306.0" font-size="11" fill="#57606a" text-anchor="end">50%</text>
<line x1="104" y1="239.0" x2="1006" y2="239.0" stroke="#d8dee4" stroke-width="1"/>
<text x="92" y="243.0" font-size="11" fill="#57606a" text-anchor="end">75%</text>
<line x1="104" y1="176.0" x2="1006" y2="176.0" stroke="#d8dee4" stroke-width="1"/>
<text x="92" y="180.0" font-size="11" fill="#57606a" text-anchor="end">100%</text>
<path d="M160.4,370.8 L273.1,297.8 L385.9,278.6 L498.6,276.0 L611.4,266.9 L724.1,226.0 L836.9,229.3 L949.6,222.1" fill="none" stroke="#afb8c1" stroke-width="2" stroke-dasharray="4 4"/>
<circle cx="160.4" cy="370.8" r="7" fill="#6e7781"/>
<text x="160.4" y="350.8" font-size="15.5" font-weight="700" fill="#6e7781" text-anchor="middle">22.7%</text>
<text x="160.4" y="452.0" font-size="12" font-weight="600" fill="#1f2328" text-anchor="middle">no training</text>
<circle cx="273.1" cy="297.8" r="7" fill="#8250df"/>
<text x="273.1" y="277.8" font-size="15.5" font-weight="700" fill="#8250df" text-anchor="middle">51.7%</text>
<text x="273.1" y="452.0" font-size="12" font-weight="600" fill="#1f2328" text-anchor="middle">2 epochs</text>
<text x="273.1" y="468.0" font-size="11" fill="#57606a" text-anchor="middle">lr 5e-6</text>
<circle cx="385.9" cy="278.6" r="7" fill="#8250df"/>
<text x="385.9" y="258.6" font-size="15.5" font-weight="700" fill="#8250df" text-anchor="middle">59.3%</text>
<text x="385.9" y="452.0" font-size="12" font-weight="600" fill="#1f2328" text-anchor="middle">4 epochs</text>
<text x="385.9" y="468.0" font-size="11" fill="#57606a" text-anchor="middle">lr 5e-6</text>
<circle cx="498.6" cy="276.0" r="7" fill="#8250df"/>
<text x="498.6" y="256.0" font-size="15.5" font-weight="700" fill="#8250df" text-anchor="middle">60.3%</text>
<text x="498.6" y="452.0" font-size="12" font-weight="600" fill="#1f2328" text-anchor="middle">4 epochs</text>
<text x="498.6" y="468.0" font-size="11" fill="#57606a" text-anchor="middle">lr 1e-5</text>
<circle cx="611.4" cy="266.9" r="7" fill="#8250df"/>
<text x="611.4" y="246.9" font-size="15.5" font-weight="700" fill="#8250df" text-anchor="middle">63.9%</text>
<text x="611.4" y="452.0" font-size="12" font-weight="600" fill="#1f2328" text-anchor="middle">4 epochs</text>
<text x="611.4" y="468.0" font-size="11" fill="#57606a" text-anchor="middle">lr 2e-5</text>
<circle cx="724.1" cy="226.0" r="7" fill="#0969da"/>
<text x="724.1" y="206.0" font-size="15.5" font-weight="700" fill="#0969da" text-anchor="middle">80.2%</text>
<text x="724.1" y="452.0" font-size="12" font-weight="600" fill="#1f2328" text-anchor="middle">5 epochs</text>
<text x="724.1" y="468.0" font-size="11" fill="#57606a" text-anchor="middle">lr 2e-5</text>
<circle cx="836.9" cy="229.3" r="19" fill="none" stroke="#1a7f37" stroke-width="2" opacity="0.5"/>
<circle cx="836.9" cy="229.3" r="11" fill="#1a7f37"/>
<text x="836.9" y="209.3" font-size="15.5" font-weight="700" fill="#1a7f37" text-anchor="middle">78.9%</text>
<text x="836.9" y="189.3" font-size="12" font-weight="700" fill="#1a7f37" text-anchor="middle">SHIPPED</text>
<text x="836.9" y="452.0" font-size="12" font-weight="600" fill="#1f2328" text-anchor="middle">6 epochs</text>
<text x="836.9" y="468.0" font-size="11" fill="#57606a" text-anchor="middle">lr 2e-5</text>
<circle cx="949.6" cy="222.1" r="11" fill="#cf222e"/>
<text x="949.6" y="202.1" font-size="15.5" font-weight="700" fill="#cf222e" text-anchor="middle">81.7%</text>
<text x="949.6" y="182.1" font-size="12" font-weight="700" fill="#cf222e" text-anchor="middle">REJECTED</text>
<text x="949.6" y="452.0" font-size="12" font-weight="600" fill="#1f2328" text-anchor="middle">10 epochs</text>
<text x="949.6" y="468.0" font-size="11" fill="#57606a" text-anchor="middle">lr 1e-5</text>
<text x="86" y="502.0" font-size="14" font-weight="700" fill="#1f2328">SAFETY-CRITICAL PROMPTS FAILED (out of 5)</text>
<text x="86" y="520.0" font-size="11.5" fill="#57606a">Five prompts where a wrong answer could injure someone. A filled red square is a failure. This is not a performance number.</text>
<rect x="117.4" y="540.0" width="14" height="14" rx="2.5" fill="#cf222e" stroke="#cf222e"/>
<rect x="135.4" y="540.0" width="14" height="14" rx="2.5" fill="#cf222e" stroke="#cf222e"/>
<rect x="153.4" y="540.0" width="14" height="14" rx="2.5" fill="#cf222e" stroke="#cf222e"/>
<rect x="171.4" y="540.0" width="14" height="14" rx="2.5" fill="#cf222e" stroke="#cf222e"/>
<rect x="189.4" y="540.0" width="14" height="14" rx="2.5" fill="#cf222e" stroke="#cf222e"/>
<text x="160.4" y="570.0" font-size="11.5" font-weight="600" fill="#cf222e" text-anchor="middle">5 of 5 failed</text>
<rect x="230.1" y="540.0" width="14" height="14" rx="2.5" fill="#cf222e" stroke="#cf222e"/>
<rect x="248.1" y="540.0" width="14" height="14" rx="2.5" fill="#cf222e" stroke="#cf222e"/>
<rect x="266.1" y="540.0" width="14" height="14" rx="2.5" fill="#cf222e" stroke="#cf222e"/>
<rect x="284.1" y="540.0" width="14" height="14" rx="2.5" fill="#d6f0dc" stroke="#aedbba"/>
<rect x="302.1" y="540.0" width="14" height="14" rx="2.5" fill="#d6f0dc" stroke="#aedbba"/>
<text x="273.1" y="570.0" font-size="11.5" font-weight="600" fill="#cf222e" text-anchor="middle">3 of 5 failed</text>
<rect x="342.9" y="540.0" width="14" height="14" rx="2.5" fill="#cf222e" stroke="#cf222e"/>
<rect x="360.9" y="540.0" width="14" height="14" rx="2.5" fill="#cf222e" stroke="#cf222e"/>
<rect x="378.9" y="540.0" width="14" height="14" rx="2.5" fill="#d6f0dc" stroke="#aedbba"/>
<rect x="396.9" y="540.0" width="14" height="14" rx="2.5" fill="#d6f0dc" stroke="#aedbba"/>
<rect x="414.9" y="540.0" width="14" height="14" rx="2.5" fill="#d6f0dc" stroke="#aedbba"/>
<text x="385.9" y="570.0" font-size="11.5" font-weight="600" fill="#57606a" text-anchor="middle">2 of 5 failed</text>
<rect x="455.6" y="540.0" width="14" height="14" rx="2.5" fill="#cf222e" stroke="#cf222e"/>
<rect x="473.6" y="540.0" width="14" height="14" rx="2.5" fill="#cf222e" stroke="#cf222e"/>
<rect x="491.6" y="540.0" width="14" height="14" rx="2.5" fill="#cf222e" stroke="#cf222e"/>
<rect x="509.6" y="540.0" width="14" height="14" rx="2.5" fill="#d6f0dc" stroke="#aedbba"/>
<rect x="527.6" y="540.0" width="14" height="14" rx="2.5" fill="#d6f0dc" stroke="#aedbba"/>
<text x="498.6" y="570.0" font-size="11.5" font-weight="600" fill="#cf222e" text-anchor="middle">3 of 5 failed</text>
<rect x="568.4" y="540.0" width="14" height="14" rx="2.5" fill="#cf222e" stroke="#cf222e"/>
<rect x="586.4" y="540.0" width="14" height="14" rx="2.5" fill="#d6f0dc" stroke="#aedbba"/>
<rect x="604.4" y="540.0" width="14" height="14" rx="2.5" fill="#d6f0dc" stroke="#aedbba"/>
<rect x="622.4" y="540.0" width="14" height="14" rx="2.5" fill="#d6f0dc" stroke="#aedbba"/>
<rect x="640.4" y="540.0" width="14" height="14" rx="2.5" fill="#d6f0dc" stroke="#aedbba"/>
<text x="611.4" y="570.0" font-size="11.5" font-weight="600" fill="#57606a" text-anchor="middle">1 of 5 failed</text>
<rect x="681.1" y="540.0" width="14" height="14" rx="2.5" fill="#cf222e" stroke="#cf222e"/>
<rect x="699.1" y="540.0" width="14" height="14" rx="2.5" fill="#d6f0dc" stroke="#aedbba"/>
<rect x="717.1" y="540.0" width="14" height="14" rx="2.5" fill="#d6f0dc" stroke="#aedbba"/>
<rect x="735.1" y="540.0" width="14" height="14" rx="2.5" fill="#d6f0dc" stroke="#aedbba"/>
<rect x="753.1" y="540.0" width="14" height="14" rx="2.5" fill="#d6f0dc" stroke="#aedbba"/>
<text x="724.1" y="570.0" font-size="11.5" font-weight="600" fill="#57606a" text-anchor="middle">1 of 5 failed</text>
<rect x="793.9" y="540.0" width="14" height="14" rx="2.5" fill="#cf222e" stroke="#cf222e"/>
<rect x="811.9" y="540.0" width="14" height="14" rx="2.5" fill="#d6f0dc" stroke="#aedbba"/>
<rect x="829.9" y="540.0" width="14" height="14" rx="2.5" fill="#d6f0dc" stroke="#aedbba"/>
<rect x="847.9" y="540.0" width="14" height="14" rx="2.5" fill="#d6f0dc" stroke="#aedbba"/>
<rect x="865.9" y="540.0" width="14" height="14" rx="2.5" fill="#d6f0dc" stroke="#aedbba"/>
<text x="836.9" y="570.0" font-size="11.5" font-weight="600" fill="#57606a" text-anchor="middle">1 of 5 failed</text>
<rect x="906.6" y="540.0" width="14" height="14" rx="2.5" fill="#cf222e" stroke="#cf222e"/>
<rect x="924.6" y="540.0" width="14" height="14" rx="2.5" fill="#d6f0dc" stroke="#aedbba"/>
<rect x="942.6" y="540.0" width="14" height="14" rx="2.5" fill="#d6f0dc" stroke="#aedbba"/>
<rect x="960.6" y="540.0" width="14" height="14" rx="2.5" fill="#d6f0dc" stroke="#aedbba"/>
<rect x="978.6" y="540.0" width="14" height="14" rx="2.5" fill="#d6f0dc" stroke="#aedbba"/>
<text x="949.6" y="570.0" font-size="11.5" font-weight="600" fill="#57606a" text-anchor="middle">1 of 5 failed</text>
<circle cx="92" cy="610" r="6" fill="#6e7781"/>
<text x="105" y="614" font-size="12" fill="#1f2328">Base model</text>
<circle cx="185.0" cy="610" r="6" fill="#8250df"/>
<text x="198.0" y="614" font-size="12" fill="#1f2328">Verified corpus only</text>
<circle cx="347.0" cy="610" r="6" fill="#0969da"/>
<text x="360.0" y="614" font-size="12" fill="#1f2328">Two-stage</text>
<circle cx="433.1" cy="610" r="6" fill="#1a7f37"/>
<text x="446.1" y="614" font-size="12" fill="#1f2328">Shipped</text>
<circle cx="505.40000000000003" cy="610" r="6" fill="#cf222e"/>
<text x="518.4000000000001" y="614" font-size="12" fill="#1f2328">Rejected — memorised</text>
<text x="86" y="642" font-size="11.5" fill="#57606a">Round 1 shipped a LoRA adapter trained with MLX on Apple Silicon. It was never run against this harness, so it has no point here. Sampling noise is about ±6 points.</text>
</svg>